<?xml version="1.0" encoding="UTF-8" standalone="no"?>
<!DOCTYPE svg PUBLIC "-//W3C//DTD SVG 1.1//EN"
 "http://www.w3.org/Graphics/SVG/1.1/DTD/svg11.dtd">
<!-- Generated by graphviz version 2.47.3 (20210619.1520)
 -->
<!-- Title: dependencies Pages: 1 -->
<svg width="438pt" height="174pt"
 viewBox="0.00 0.00 438.00 173.80" xmlns="http://www.w3.org/2000/svg" xmlns:xlink="http://www.w3.org/1999/xlink">
<g id="graph0" class="graph" transform="scale(1 1) rotate(0) translate(4 169.8)">
<title>dependencies</title>
<polygon fill="white" stroke="transparent" points="-4,4 -4,-169.8 434,-169.8 434,4 -4,4"/>
<text text-anchor="middle" x="215" y="-8.2" font-family="sans-serif" font-size="14.00">dependencies</text>
<g id="clust1" class="cluster">
<title>cluster_SecondQuestionPageModule</title>
<polygon fill="none" stroke="black" stroke-dasharray="1,5" points="8,-32.8 8,-157.8 422,-157.8 422,-32.8 8,-32.8"/>
</g>
<g id="clust2" class="cluster">
<title>cluster_SecondQuestionPageModule_declarations</title>
<polygon fill="none" stroke="black" points="264,-40.8 264,-92.8 414,-92.8 414,-40.8 264,-40.8"/>
</g>
<g id="clust4" class="cluster">
<title>cluster_SecondQuestionPageModule_imports</title>
<polygon fill="none" stroke="black" points="16,-40.8 16,-92.8 256,-92.8 256,-40.8 16,-40.8"/>
</g>
<!-- SecondQuestionPage -->
<g id="node1" class="node">
<title>SecondQuestionPage</title>
<polygon fill="#ffffb3" stroke="black" points="406.47,-84.8 271.53,-84.8 271.53,-48.8 406.47,-48.8 406.47,-84.8"/>
<text text-anchor="middle" x="339" y="-62.6" font-family="Times,serif" font-size="14.00">SecondQuestionPage</text>
</g>
<!-- SecondQuestionPageModule -->
<g id="node2" class="node">
<title>SecondQuestionPageModule</title>
<polygon fill="#8dd3c7" stroke="black" points="319.02,-149.8 316.02,-153.8 295.02,-153.8 292.02,-149.8 140.98,-149.8 140.98,-113.8 319.02,-113.8 319.02,-149.8"/>
<text text-anchor="middle" x="230" y="-127.6" font-family="Times,serif" font-size="14.00">SecondQuestionPageModule</text>
</g>
<!-- SecondQuestionPage&#45;&gt;SecondQuestionPageModule -->
<g id="edge1" class="edge">
<title>SecondQuestionPage&#45;&gt;SecondQuestionPageModule</title>
<path fill="none" stroke="black" d="M295.39,-84.91C295.39,-84.91 295.39,-103.79 295.39,-103.79"/>
<polygon fill="black" stroke="black" points="291.89,-103.79 295.39,-113.79 298.89,-103.79 291.89,-103.79"/>
</g>
<!-- SecondQuestionPageRoutingModule -->
<g id="node3" class="node">
<title>SecondQuestionPageRoutingModule</title>
<polygon fill="#8dd3c7" stroke="black" points="247.64,-84.8 244.64,-88.8 223.64,-88.8 220.64,-84.8 24.36,-84.8 24.36,-48.8 247.64,-48.8 247.64,-84.8"/>
<text text-anchor="middle" x="136" y="-62.6" font-family="Times,serif" font-size="14.00">SecondQuestionPageRoutingModule</text>
</g>
<!-- SecondQuestionPageRoutingModule&#45;&gt;SecondQuestionPageModule -->
<g id="edge2" class="edge">
<title>SecondQuestionPageRoutingModule&#45;&gt;SecondQuestionPageModule</title>
<path fill="none" stroke="black" d="M194.28,-84.91C194.28,-84.91 194.28,-103.79 194.28,-103.79"/>
<polygon fill="black" stroke="black" points="190.78,-103.79 194.28,-113.79 197.78,-103.79 190.78,-103.79"/>
</g>
</g>
</svg>
