<?xml version="1.0" encoding="UTF-8" standalone="no"?>
<!DOCTYPE svg PUBLIC "-//W3C//DTD SVG 1.1//EN"
 "http://www.w3.org/Graphics/SVG/1.1/DTD/svg11.dtd">
<!-- Generated by graphviz version 2.47.3 (20210619.1520)
 -->
<!-- Title: dependencies Pages: 1 -->
<svg width="368pt" height="174pt"
 viewBox="0.00 0.00 368.00 173.80" xmlns="http://www.w3.org/2000/svg" xmlns:xlink="http://www.w3.org/1999/xlink">
<g id="graph0" class="graph" transform="scale(1 1) rotate(0) translate(4 169.8)">
<title>dependencies</title>
<polygon fill="white" stroke="transparent" points="-4,4 -4,-169.8 364,-169.8 364,4 -4,4"/>
<text text-anchor="middle" x="180" y="-8.2" font-family="sans-serif" font-size="14.00">dependencies</text>
<g id="clust1" class="cluster">
<title>cluster_ZonePagePageModule</title>
<polygon fill="none" stroke="black" stroke-dasharray="1,5" points="8,-32.8 8,-157.8 352,-157.8 352,-32.8 8,-32.8"/>
</g>
<g id="clust4" class="cluster">
<title>cluster_ZonePagePageModule_imports</title>
<polygon fill="none" stroke="black" points="140,-40.8 140,-92.8 344,-92.8 344,-40.8 140,-40.8"/>
</g>
<g id="clust2" class="cluster">
<title>cluster_ZonePagePageModule_declarations</title>
<polygon fill="none" stroke="black" points="16,-40.8 16,-92.8 132,-92.8 132,-40.8 16,-40.8"/>
</g>
<!-- ZonePagePage -->
<g id="node1" class="node">
<title>ZonePagePage</title>
<polygon fill="#ffffb3" stroke="black" points="123.69,-84.8 24.31,-84.8 24.31,-48.8 123.69,-48.8 123.69,-84.8"/>
<text text-anchor="middle" x="74" y="-62.6" font-family="Times,serif" font-size="14.00">ZonePagePage</text>
</g>
<!-- ZonePagePageModule -->
<g id="node2" class="node">
<title>ZonePagePageModule</title>
<polygon fill="#8dd3c7" stroke="black" points="235.24,-149.8 232.24,-153.8 211.24,-153.8 208.24,-149.8 92.76,-149.8 92.76,-113.8 235.24,-113.8 235.24,-149.8"/>
<text text-anchor="middle" x="164" y="-127.6" font-family="Times,serif" font-size="14.00">ZonePagePageModule</text>
</g>
<!-- ZonePagePage&#45;&gt;ZonePagePageModule -->
<g id="edge1" class="edge">
<title>ZonePagePage&#45;&gt;ZonePagePageModule</title>
<path fill="none" stroke="black" d="M108.11,-84.91C108.11,-84.91 108.11,-103.79 108.11,-103.79"/>
<polygon fill="black" stroke="black" points="104.61,-103.79 108.11,-113.79 111.61,-103.79 104.61,-103.79"/>
</g>
<!-- ZonePagePageRoutingModule -->
<g id="node3" class="node">
<title>ZonePagePageRoutingModule</title>
<polygon fill="#8dd3c7" stroke="black" points="335.86,-84.8 332.86,-88.8 311.86,-88.8 308.86,-84.8 148.14,-84.8 148.14,-48.8 335.86,-48.8 335.86,-84.8"/>
<text text-anchor="middle" x="242" y="-62.6" font-family="Times,serif" font-size="14.00">ZonePagePageRoutingModule</text>
</g>
<!-- ZonePagePageRoutingModule&#45;&gt;ZonePagePageModule -->
<g id="edge2" class="edge">
<title>ZonePagePageRoutingModule&#45;&gt;ZonePagePageModule</title>
<path fill="none" stroke="black" d="M191.72,-84.91C191.72,-84.91 191.72,-103.79 191.72,-103.79"/>
<polygon fill="black" stroke="black" points="188.22,-103.79 191.72,-113.79 195.22,-103.79 188.22,-103.79"/>
</g>
</g>
</svg>
