<?xml version="1.0" encoding="UTF-8" standalone="no"?>
<!DOCTYPE svg PUBLIC "-//W3C//DTD SVG 1.1//EN"
 "http://www.w3.org/Graphics/SVG/1.1/DTD/svg11.dtd">
<!-- Generated by graphviz version 2.47.3 (20210619.1520)
 -->
<!-- Title: dependencies Pages: 1 -->
<svg width="360pt" height="174pt"
 viewBox="0.00 0.00 360.00 173.80" xmlns="http://www.w3.org/2000/svg" xmlns:xlink="http://www.w3.org/1999/xlink">
<g id="graph0" class="graph" transform="scale(1 1) rotate(0) translate(4 169.8)">
<title>dependencies</title>
<polygon fill="white" stroke="transparent" points="-4,4 -4,-169.8 356,-169.8 356,4 -4,4"/>
<text text-anchor="middle" x="176" y="-8.2" font-family="sans-serif" font-size="14.00">dependencies</text>
<g id="clust1" class="cluster">
<title>cluster_thankyouPageModule</title>
<polygon fill="none" stroke="black" stroke-dasharray="1,5" points="8,-32.8 8,-157.8 344,-157.8 344,-32.8 8,-32.8"/>
</g>
<g id="clust4" class="cluster">
<title>cluster_thankyouPageModule_imports</title>
<polygon fill="none" stroke="black" points="136,-40.8 136,-92.8 336,-92.8 336,-40.8 136,-40.8"/>
</g>
<g id="clust2" class="cluster">
<title>cluster_thankyouPageModule_declarations</title>
<polygon fill="none" stroke="black" points="16,-40.8 16,-92.8 128,-92.8 128,-40.8 16,-40.8"/>
</g>
<!-- thankyouPage -->
<g id="node1" class="node">
<title>thankyouPage</title>
<polygon fill="#ffffb3" stroke="black" points="119.82,-84.8 24.18,-84.8 24.18,-48.8 119.82,-48.8 119.82,-84.8"/>
<text text-anchor="middle" x="72" y="-62.6" font-family="Times,serif" font-size="14.00">thankyouPage</text>
</g>
<!-- thankyouPageModule -->
<g id="node2" class="node">
<title>thankyouPageModule</title>
<polygon fill="#8dd3c7" stroke="black" points="229.37,-149.8 226.37,-153.8 205.37,-153.8 202.37,-149.8 90.63,-149.8 90.63,-113.8 229.37,-113.8 229.37,-149.8"/>
<text text-anchor="middle" x="160" y="-127.6" font-family="Times,serif" font-size="14.00">thankyouPageModule</text>
</g>
<!-- thankyouPage&#45;&gt;thankyouPageModule -->
<g id="edge1" class="edge">
<title>thankyouPage&#45;&gt;thankyouPageModule</title>
<path fill="none" stroke="black" d="M105.11,-84.91C105.11,-84.91 105.11,-103.79 105.11,-103.79"/>
<polygon fill="black" stroke="black" points="101.61,-103.79 105.11,-113.79 108.61,-103.79 101.61,-103.79"/>
</g>
<!-- thankyouPageRoutingModule -->
<g id="node3" class="node">
<title>thankyouPageRoutingModule</title>
<polygon fill="#8dd3c7" stroke="black" points="327.98,-84.8 324.98,-88.8 303.98,-88.8 300.98,-84.8 144.02,-84.8 144.02,-48.8 327.98,-48.8 327.98,-84.8"/>
<text text-anchor="middle" x="236" y="-62.6" font-family="Times,serif" font-size="14.00">thankyouPageRoutingModule</text>
</g>
<!-- thankyouPageRoutingModule&#45;&gt;thankyouPageModule -->
<g id="edge2" class="edge">
<title>thankyouPageRoutingModule&#45;&gt;thankyouPageModule</title>
<path fill="none" stroke="black" d="M186.72,-84.91C186.72,-84.91 186.72,-103.79 186.72,-103.79"/>
<polygon fill="black" stroke="black" points="183.22,-103.79 186.72,-113.79 190.22,-103.79 183.22,-103.79"/>
</g>
</g>
</svg>
