<?xml version="1.0" encoding="UTF-8" standalone="no"?>
<!DOCTYPE svg PUBLIC "-//W3C//DTD SVG 1.1//EN"
 "http://www.w3.org/Graphics/SVG/1.1/DTD/svg11.dtd">
<!-- Generated by graphviz version 2.47.3 (20210619.1520)
 -->
<!-- Title: dependencies Pages: 1 -->
<svg width="408pt" height="174pt"
 viewBox="0.00 0.00 408.00 173.80" xmlns="http://www.w3.org/2000/svg" xmlns:xlink="http://www.w3.org/1999/xlink">
<g id="graph0" class="graph" transform="scale(1 1) rotate(0) translate(4 169.8)">
<title>dependencies</title>
<polygon fill="white" stroke="transparent" points="-4,4 -4,-169.8 404,-169.8 404,4 -4,4"/>
<text text-anchor="middle" x="200" y="-8.2" font-family="sans-serif" font-size="14.00">dependencies</text>
<g id="clust1" class="cluster">
<title>cluster_FirstQuestionPageModule</title>
<polygon fill="none" stroke="black" stroke-dasharray="1,5" points="8,-32.8 8,-157.8 392,-157.8 392,-32.8 8,-32.8"/>
</g>
<g id="clust2" class="cluster">
<title>cluster_FirstQuestionPageModule_declarations</title>
<polygon fill="none" stroke="black" points="248,-40.8 248,-92.8 384,-92.8 384,-40.8 248,-40.8"/>
</g>
<g id="clust4" class="cluster">
<title>cluster_FirstQuestionPageModule_imports</title>
<polygon fill="none" stroke="black" points="16,-40.8 16,-92.8 240,-92.8 240,-40.8 16,-40.8"/>
</g>
<!-- FirstQuestionPage -->
<g id="node1" class="node">
<title>FirstQuestionPage</title>
<polygon fill="#ffffb3" stroke="black" points="375.93,-84.8 256.07,-84.8 256.07,-48.8 375.93,-48.8 375.93,-84.8"/>
<text text-anchor="middle" x="316" y="-62.6" font-family="Times,serif" font-size="14.00">FirstQuestionPage</text>
</g>
<!-- FirstQuestionPageModule -->
<g id="node2" class="node">
<title>FirstQuestionPageModule</title>
<polygon fill="#8dd3c7" stroke="black" points="296.48,-149.8 293.48,-153.8 272.48,-153.8 269.48,-149.8 133.52,-149.8 133.52,-113.8 296.48,-113.8 296.48,-149.8"/>
<text text-anchor="middle" x="215" y="-127.6" font-family="Times,serif" font-size="14.00">FirstQuestionPageModule</text>
</g>
<!-- FirstQuestionPage&#45;&gt;FirstQuestionPageModule -->
<g id="edge1" class="edge">
<title>FirstQuestionPage&#45;&gt;FirstQuestionPageModule</title>
<path fill="none" stroke="black" d="M276.39,-84.91C276.39,-84.91 276.39,-103.79 276.39,-103.79"/>
<polygon fill="black" stroke="black" points="272.89,-103.79 276.39,-113.79 279.89,-103.79 272.89,-103.79"/>
</g>
<!-- FirstQuestionPageRoutingModule -->
<g id="node3" class="node">
<title>FirstQuestionPageRoutingModule</title>
<polygon fill="#8dd3c7" stroke="black" points="232.1,-84.8 229.1,-88.8 208.1,-88.8 205.1,-84.8 23.9,-84.8 23.9,-48.8 232.1,-48.8 232.1,-84.8"/>
<text text-anchor="middle" x="128" y="-62.6" font-family="Times,serif" font-size="14.00">FirstQuestionPageRoutingModule</text>
</g>
<!-- FirstQuestionPageRoutingModule&#45;&gt;FirstQuestionPageModule -->
<g id="edge2" class="edge">
<title>FirstQuestionPageRoutingModule&#45;&gt;FirstQuestionPageModule</title>
<path fill="none" stroke="black" d="M182.78,-84.91C182.78,-84.91 182.78,-103.79 182.78,-103.79"/>
<polygon fill="black" stroke="black" points="179.28,-103.79 182.78,-113.79 186.28,-103.79 179.28,-103.79"/>
</g>
</g>
</svg>
